<svg width="16" height="16" viewBox="0 0 16 16" fill="none">
<rect width="16" height="16" fill="#050505"/>
<path d="M5.76989 3.27273V12H3.66051V3.27273H5.76989ZM10.6396 3.27273H12.7191V9.30682C12.7163 9.87216 12.5813 10.3665 12.3143 10.7898C12.0472 11.2102 11.6779 11.5369 11.2063 11.7699C10.7376 12.0028 10.195 12.1193 9.57848 12.1193C9.03303 12.1193 8.53729 12.0241 8.09126 11.8338C7.64808 11.6435 7.29439 11.348 7.03018 10.9474C6.76882 10.5469 6.63956 10.0341 6.6424 9.40909H8.74325C8.75178 9.63352 8.79439 9.82528 8.87109 9.98438C8.95064 10.1406 9.06001 10.2585 9.19922 10.3381C9.33842 10.4176 9.50462 10.4574 9.6978 10.4574C9.8995 10.4574 10.07 10.4148 10.2092 10.3295C10.3484 10.2415 10.4535 10.1122 10.5245 9.94176C10.5984 9.77131 10.6367 9.55966 10.6396 9.30682V3.27273Z" fill="white"/>
</svg>
